<mxfile host="app.diagrams.net" modified="2023-06-06T06:57:32.440Z" agent="Mozilla/5.0 (Macintosh; Intel Mac OS X 10_15_7) AppleWebKit/537.36 (KHTML, like Gecko) Chrome/114.0.0.0 Safari/537.36" etag="8g_1JBTC9XUxKdo2XTmB" version="21.3.4" type="github">
  <diagram name="第 1 页" id="FNDlVefC7PtZoyE1Enn6">
    <mxGraphModel dx="1781" dy="591" grid="1" gridSize="10" guides="1" tooltips="1" connect="1" arrows="1" fold="1" page="1" pageScale="1" pageWidth="827" pageHeight="1169" math="0" shadow="0">
      <root>
        <mxCell id="0" />
        <mxCell id="1" parent="0" />
        <mxCell id="nAtXZeS7Dvu57pdHPr-w-5" style="edgeStyle=orthogonalEdgeStyle;rounded=0;orthogonalLoop=1;jettySize=auto;html=1;exitX=1;exitY=0;exitDx=0;exitDy=0;entryX=0;entryY=0.75;entryDx=0;entryDy=0;" edge="1" parent="1" source="nAtXZeS7Dvu57pdHPr-w-1" target="nAtXZeS7Dvu57pdHPr-w-2">
          <mxGeometry relative="1" as="geometry">
            <Array as="points">
              <mxPoint x="240" y="342" />
              <mxPoint x="240" y="115" />
            </Array>
          </mxGeometry>
        </mxCell>
        <mxCell id="nAtXZeS7Dvu57pdHPr-w-6" value="2.上报定点巡检结果，&lt;br&gt;红外图谱等信息" style="edgeLabel;html=1;align=center;verticalAlign=middle;resizable=0;points=[];" vertex="1" connectable="0" parent="nAtXZeS7Dvu57pdHPr-w-5">
          <mxGeometry x="0.0403" relative="1" as="geometry">
            <mxPoint y="-28" as="offset" />
          </mxGeometry>
        </mxCell>
        <mxCell id="nAtXZeS7Dvu57pdHPr-w-7" style="edgeStyle=orthogonalEdgeStyle;rounded=0;orthogonalLoop=1;jettySize=auto;html=1;exitX=1;exitY=0.5;exitDx=0;exitDy=0;entryX=0.25;entryY=1;entryDx=0;entryDy=0;" edge="1" parent="1" source="nAtXZeS7Dvu57pdHPr-w-1" target="nAtXZeS7Dvu57pdHPr-w-2">
          <mxGeometry relative="1" as="geometry">
            <Array as="points">
              <mxPoint x="350" y="370" />
            </Array>
          </mxGeometry>
        </mxCell>
        <mxCell id="nAtXZeS7Dvu57pdHPr-w-8" value="3.上报全景图" style="edgeLabel;html=1;align=center;verticalAlign=middle;resizable=0;points=[];" vertex="1" connectable="0" parent="nAtXZeS7Dvu57pdHPr-w-7">
          <mxGeometry x="0.2108" y="1" relative="1" as="geometry">
            <mxPoint as="offset" />
          </mxGeometry>
        </mxCell>
        <mxCell id="nAtXZeS7Dvu57pdHPr-w-9" style="edgeStyle=orthogonalEdgeStyle;rounded=0;orthogonalLoop=1;jettySize=auto;html=1;exitX=1;exitY=1;exitDx=0;exitDy=0;entryX=0.75;entryY=1;entryDx=0;entryDy=0;" edge="1" parent="1" source="nAtXZeS7Dvu57pdHPr-w-1" target="nAtXZeS7Dvu57pdHPr-w-2">
          <mxGeometry relative="1" as="geometry">
            <Array as="points">
              <mxPoint x="182" y="400" />
              <mxPoint x="410" y="400" />
            </Array>
          </mxGeometry>
        </mxCell>
        <mxCell id="nAtXZeS7Dvu57pdHPr-w-10" value="4.上报任务结束状态" style="edgeLabel;html=1;align=center;verticalAlign=middle;resizable=0;points=[];" vertex="1" connectable="0" parent="nAtXZeS7Dvu57pdHPr-w-9">
          <mxGeometry x="0.0713" y="1" relative="1" as="geometry">
            <mxPoint as="offset" />
          </mxGeometry>
        </mxCell>
        <mxCell id="nAtXZeS7Dvu57pdHPr-w-16" value="存储红外图谱文件" style="edgeStyle=orthogonalEdgeStyle;rounded=0;orthogonalLoop=1;jettySize=auto;html=1;exitX=1;exitY=0;exitDx=0;exitDy=0;" edge="1" parent="1" source="nAtXZeS7Dvu57pdHPr-w-1" target="nAtXZeS7Dvu57pdHPr-w-15">
          <mxGeometry relative="1" as="geometry" />
        </mxCell>
        <mxCell id="nAtXZeS7Dvu57pdHPr-w-1" value="球机" style="ellipse;whiteSpace=wrap;html=1;" vertex="1" parent="1">
          <mxGeometry x="80" y="330" width="120" height="80" as="geometry" />
        </mxCell>
        <mxCell id="nAtXZeS7Dvu57pdHPr-w-4" value="1.发送巡检任务" style="edgeStyle=orthogonalEdgeStyle;rounded=0;orthogonalLoop=1;jettySize=auto;html=1;exitX=0;exitY=0.5;exitDx=0;exitDy=0;entryX=0.5;entryY=0;entryDx=0;entryDy=0;" edge="1" parent="1" source="nAtXZeS7Dvu57pdHPr-w-2" target="nAtXZeS7Dvu57pdHPr-w-1">
          <mxGeometry relative="1" as="geometry" />
        </mxCell>
        <mxCell id="nAtXZeS7Dvu57pdHPr-w-11" style="edgeStyle=orthogonalEdgeStyle;rounded=0;orthogonalLoop=1;jettySize=auto;html=1;exitX=1;exitY=0.5;exitDx=0;exitDy=0;" edge="1" parent="1" source="nAtXZeS7Dvu57pdHPr-w-2" target="nAtXZeS7Dvu57pdHPr-w-3">
          <mxGeometry relative="1" as="geometry" />
        </mxCell>
        <mxCell id="nAtXZeS7Dvu57pdHPr-w-12" value="5.任务结束通知数据分析模块" style="edgeLabel;html=1;align=center;verticalAlign=middle;resizable=0;points=[];" vertex="1" connectable="0" parent="nAtXZeS7Dvu57pdHPr-w-11">
          <mxGeometry x="0.1455" y="1" relative="1" as="geometry">
            <mxPoint as="offset" />
          </mxGeometry>
        </mxCell>
        <mxCell id="nAtXZeS7Dvu57pdHPr-w-2" value="业务平台" style="rounded=0;whiteSpace=wrap;html=1;" vertex="1" parent="1">
          <mxGeometry x="320" y="70" width="120" height="60" as="geometry" />
        </mxCell>
        <mxCell id="nAtXZeS7Dvu57pdHPr-w-13" value="6.获取当前任务巡检结果" style="edgeStyle=orthogonalEdgeStyle;rounded=0;orthogonalLoop=1;jettySize=auto;html=1;exitX=0;exitY=0;exitDx=0;exitDy=0;entryX=1;entryY=0.75;entryDx=0;entryDy=0;" edge="1" parent="1" source="nAtXZeS7Dvu57pdHPr-w-3" target="nAtXZeS7Dvu57pdHPr-w-2">
          <mxGeometry relative="1" as="geometry">
            <Array as="points">
              <mxPoint x="610" y="352" />
              <mxPoint x="610" y="115" />
            </Array>
          </mxGeometry>
        </mxCell>
        <mxCell id="nAtXZeS7Dvu57pdHPr-w-14" value="7.上报分析告警结果" style="edgeStyle=orthogonalEdgeStyle;rounded=0;orthogonalLoop=1;jettySize=auto;html=1;exitX=0;exitY=0.5;exitDx=0;exitDy=0;entryX=1;entryY=1;entryDx=0;entryDy=0;" edge="1" parent="1" source="nAtXZeS7Dvu57pdHPr-w-3" target="nAtXZeS7Dvu57pdHPr-w-2">
          <mxGeometry relative="1" as="geometry">
            <Array as="points">
              <mxPoint x="530" y="380" />
              <mxPoint x="530" y="130" />
            </Array>
          </mxGeometry>
        </mxCell>
        <mxCell id="nAtXZeS7Dvu57pdHPr-w-3" value="数据分析" style="ellipse;whiteSpace=wrap;html=1;" vertex="1" parent="1">
          <mxGeometry x="630" y="340" width="120" height="80" as="geometry" />
        </mxCell>
        <mxCell id="nAtXZeS7Dvu57pdHPr-w-15" value="FTP服务器" style="rounded=0;whiteSpace=wrap;html=1;" vertex="1" parent="1">
          <mxGeometry x="-90" y="70" width="120" height="60" as="geometry" />
        </mxCell>
      </root>
    </mxGraphModel>
  </diagram>
</mxfile>
